<svg width="25" height="25" viewBox="0 0 25 25" fill="none" xmlns="http://www.w3.org/2000/svg">
<g id="noto:broken-chain" clip-path="url(#clip0_1_483)">
<path id="Vector" d="M18.6629 8.88741L16.7497 9.01987C15.0058 9.1602 13.6916 10.7352 13.8455 12.5439C13.9993 14.3526 15.5208 15.7078 17.2647 15.5674L19.1692 15.4449C20.9131 15.3046 22.2273 13.7295 22.0734 11.9208C21.9196 10.1121 20.4168 8.75582 18.6629 8.88741ZM19.0364 13.6723L17.1319 13.7949C16.3303 13.8652 15.6335 13.2351 15.562 12.4148C15.4893 11.5758 16.0896 10.8528 16.8924 10.8012L18.7969 10.6786C19.5986 10.6083 20.2953 11.2384 20.3668 12.0588C20.4383 12.8791 19.838 13.602 19.0364 13.6723Z" fill="white"/>
<path id="Vector_2" d="M15.434 13.9229C15.7175 13.5203 16.3345 13.64 16.5745 13.7277C16.0286 13.5472 15.6016 13.031 15.5521 12.4061C15.5208 11.9206 15.7073 11.468 16.0353 11.1751C16.0353 11.1751 15.2866 11.4857 14.7307 11.2965C14.2233 11.1323 14.1481 10.8372 14.1481 10.8372C13.9092 11.3494 13.7871 11.929 13.8355 12.5353C13.9299 13.7103 14.6121 14.6976 15.563 15.1989C15.2959 14.9817 15.0732 14.4336 15.434 13.9229Z" fill="white"/>
<path id="Vector_3" d="M15.8579 11.4771L13.4307 11.6332L12.6299 13.4658L15.972 13.2508C16.4388 13.2208 16.8391 12.8857 16.8018 12.3069C16.7646 11.7281 16.3247 11.447 15.8579 11.4771Z" fill="white"/>
<path id="Vector_4" d="M13.2901 12.6547C13.06 13.157 12.7979 13.455 12.6199 13.4571C12.4793 13.4568 12.5851 12.9157 12.8153 12.4134C13.0454 11.9111 13.2713 11.6341 13.4207 11.6245C13.5899 11.6324 13.5203 12.1524 13.2901 12.6547ZM14.8091 10.7665C15.0055 10.9039 15.2663 10.5871 15.31 10.5374C15.6368 10.2258 16.0443 10.0027 16.4912 9.95521C16.8074 9.91612 16.8812 9.75201 16.8827 9.63004C16.8818 9.47074 16.7515 9.33851 16.3892 9.38995C15.7941 9.46573 15.2532 9.8005 14.8613 10.2663C14.7827 10.3557 14.6128 10.6291 14.8091 10.7665Z" fill="white"/>
<path id="Vector_5" d="M5.9786 16.303L7.88306 16.1804C9.627 16.0401 10.9412 14.4651 10.7873 12.6564C10.6334 10.8477 9.11201 9.49256 7.36806 9.63289L5.47234 9.74548C3.72839 9.8858 2.41422 11.4609 2.56809 13.2695C2.72195 15.0782 4.22472 16.4346 5.9786 16.303ZM5.60513 11.518L7.50959 11.3955C8.31124 11.3252 9.00798 11.9553 9.0795 12.7756C9.14229 13.6059 8.54199 14.3288 7.74906 14.3892L5.84461 14.5117C5.04295 14.5821 4.34622 13.952 4.27469 13.1316C4.20317 12.3113 4.80347 11.5884 5.60513 11.518Z" fill="white"/>
<path id="Vector_6" d="M5.9786 16.303L7.88306 16.1804C9.627 16.0401 10.9412 14.4651 10.7873 12.6564C10.6334 10.8477 9.11201 9.49256 7.36806 9.63289L5.47234 9.74548C3.72839 9.8858 2.41422 11.4609 2.56809 13.2695C2.72195 15.0782 4.22472 16.4346 5.9786 16.303ZM5.60513 11.518L7.50959 11.3955C8.31124 11.3252 9.00798 11.9553 9.0795 12.7756C9.14229 13.6059 8.54199 14.3288 7.74906 14.3892L5.84461 14.5117C5.04295 14.5821 4.34622 13.952 4.27469 13.1316C4.20317 12.3113 4.80347 11.5884 5.60513 11.518Z" fill="white"/>
<path id="Vector_7" d="M9.5203 11.6129C9.00079 11.8432 8.46358 11.6528 8.43497 11.6453C8.79781 11.8938 9.03955 12.3001 9.07952 12.7756C9.1291 13.4005 8.80798 13.9461 8.30081 14.2224C8.5562 14.1123 9.07298 13.9853 9.37467 14.3033C9.80793 14.7723 9.63979 15.3643 9.40275 15.6139C10.3177 14.9739 10.8928 13.8588 10.7861 12.6377C10.7489 12.0589 10.546 11.5282 10.2546 11.0782C10.257 11.1156 10.0684 11.3902 9.5203 11.6129Z" fill="white"/>
<g id="Group">
<path id="Vector_8" d="M8.78323 13.7137L11.2105 13.5576L12.0112 11.725L8.66911 11.94C8.20233 11.97 7.80205 12.3051 7.83929 12.8839C7.87653 13.4627 8.31645 13.7438 8.78323 13.7137Z" fill="white"/>
<path id="Vector_9" d="M11.3514 12.5357C11.5815 12.0335 11.8436 11.7354 12.0215 11.7333C12.1622 11.7336 12.0564 12.2748 11.8262 12.777C11.5961 13.2793 11.3702 13.5563 11.2208 13.5659C11.0515 13.5581 11.1212 13.038 11.3514 12.5357Z" fill="white"/>
</g>
<path id="Vector_10" d="M3.20532 13.266C3.30861 13.2688 3.43964 13.1197 3.43155 12.8484C3.37061 11.7555 4.25645 10.808 5.24241 10.6883C5.55862 10.6492 5.63243 10.4851 5.63396 10.3631C5.63308 10.2038 5.50271 10.0716 5.14042 10.123C3.89547 10.2969 2.88822 11.5428 2.95604 12.8884C2.95058 13.0949 3.06469 13.2657 3.20532 13.266ZM10.8111 12.5892C10.5672 12.5862 10.2387 12.5792 9.98479 12.5674C9.75953 12.5631 9.65897 12.4571 9.65056 12.3264C9.64849 12.1484 9.79425 12.0828 9.96229 12.072L11.0277 12.0222C11.2145 12.0102 11.3087 12.1635 11.2361 12.3463C11.1984 12.4893 11.055 12.5923 10.8111 12.5892Z" fill="white"/>
<path id="Vector_11" d="M9.28209 8.05674L10.8471 9.94338M11.8611 6.32532L12.1222 9.65511M14.7575 7.77945L13.3102 9.90678M15.3486 16.9656L13.7835 15.079M12.7696 18.6971L12.5085 15.3673M9.87311 17.2429L11.3205 15.1156" stroke="white" stroke-width="0.529191" stroke-miterlimit="10" stroke-linecap="round"/>
</g>
<defs>
<clipPath id="clip0_1_483">
<rect width="16.9341" height="16.9341" fill="white" transform="translate(11.552 0.645691) rotate(41.3188)"/>
</clipPath>
</defs>
</svg>
